<svg width="48" height="48" viewBox="0 0 48 48" fill="none" xmlns="http://www.w3.org/2000/svg">
<path d="M42.9943 14.9829H35.2127C33.2837 14.9829 33.0375 14.7369 33.0375 12.8096V5.03494C33.0375 2.81244 31.2234 1 29.0071 1H19.0257C16.8012 1 14.9954 2.81244 14.9954 5.03494V16.4427C15.0446 17.4022 15.4304 18.2715 16.0378 18.944L28.5393 31.4343C29.0153 31.9018 28.9825 32.525 28.9825 32.525V40.7672C28.9825 42.6944 28.7445 42.9405 26.8155 42.9405H21.2256C19.2966 42.9405 19.0503 42.6944 19.0503 40.7672V32.9843C19.0503 30.7618 17.2445 28.9576 15.0118 28.9576H7.23019C5.30121 28.9576 5.05496 28.7115 5.05496 26.7843V21.1993C5.05496 19.2147 5.21092 19.0342 6.93469 19.0342H9.0853C10.2099 19.0342 11.1128 18.1239 11.1128 17.0086C11.1128 15.8932 10.2016 14.9911 9.0853 14.9911H5.03854C2.81406 14.9911 1 16.7953 1 19.0178V28.9904C1 31.2129 2.80585 33.0171 5.03854 33.0171H12.8201C14.7491 33.0171 14.9872 33.2631 14.9872 35.1904V42.9651C14.9872 45.1876 16.8012 47 19.0175 47H28.9989C31.2152 47 33.0293 45.1876 33.0293 42.9651V31.8362C33.0128 30.811 32.8569 30.0565 31.9786 29.1872L19.4772 16.6887C19.2063 16.4017 19.0421 16.008 19.0421 15.5816V7.35586C19.0421 6.39633 18.9847 5.95347 19.3787 5.51881C19.7973 5.06775 20.257 5.05135 21.2091 5.05135H26.7991C27.8826 5.05135 28.2602 5.14976 28.6049 5.50241C28.9989 5.90426 28.9661 6.47834 28.9661 7.34766V14.9911C28.9661 17.2136 30.7719 19.026 33.0046 19.026H40.7862C42.7152 19.026 42.9615 19.2639 42.9615 21.1911V26.7761C42.9615 28.7033 42.7891 28.9248 41.2787 28.9494C41.2787 28.9494 41.2623 28.9494 41.2459 28.9494H38.9147C37.8558 28.9494 36.9693 29.7777 36.8954 30.8356C36.8872 30.8848 36.8872 31.1145 36.8954 31.1801C36.9939 32.2216 37.864 33.0089 38.9065 33.0089H42.9615C45.1859 33.0089 47 31.2047 47 28.9822V19.0096C47 16.7871 45.1941 14.9829 42.9615 14.9829" fill="#01A355"/>
</svg>
