<svg width="148" height="48" viewBox="0 0 148 48" fill="none" xmlns="http://www.w3.org/2000/svg">
<path d="M41.1426 14.7115H33.5188C31.629 14.7115 31.3877 14.4703 31.3877 12.5804V4.95664C31.3877 2.77727 29.6104 1 27.4391 1H17.6601C15.4807 1 13.7115 2.77727 13.7115 4.95664V16.143C13.7598 17.0839 14.1377 17.9363 14.7328 18.5958L26.9807 30.8437C27.4472 31.302 27.415 31.9132 27.415 31.9132V39.9954C27.415 41.8852 27.1818 42.1265 25.2919 42.1265H19.8153C17.9255 42.1265 17.6842 41.8852 17.6842 39.9954V32.3636C17.6842 30.1842 15.915 28.415 13.7276 28.415H6.10384C4.21398 28.415 3.97272 28.1737 3.97272 26.2839V20.8073C3.97272 18.8612 4.12552 18.6842 5.81433 18.6842H7.92132C9.02306 18.6842 9.90767 17.7916 9.90767 16.6979C9.90767 15.6042 9.01502 14.7196 7.92132 14.7196H3.95664C1.77727 14.7196 0 16.4888 0 18.6681V28.4472C0 30.6265 1.76923 32.3957 3.95664 32.3957H11.5804C13.4703 32.3957 13.7035 32.637 13.7035 34.5269V42.1506C13.7035 44.33 15.4807 46.1073 17.6521 46.1073H27.4311C29.6024 46.1073 31.3797 44.33 31.3797 42.1506V31.2377C31.3636 30.2325 31.2108 29.4926 30.3503 28.6402L18.1024 16.3842C17.837 16.1028 17.6762 15.7168 17.6762 15.2986V7.23251C17.6762 6.2916 17.6199 5.85733 18.0059 5.43111C18.4161 4.9888 18.8664 4.97272 19.7993 4.97272H25.2758C26.3374 4.97272 26.7073 5.06922 27.0451 5.41503C27.4311 5.80908 27.3989 6.37202 27.3989 7.22446V14.7196C27.3989 16.8989 29.1681 18.6762 31.3555 18.6762H38.9793C40.8692 18.6762 41.1104 18.9094 41.1104 20.7993V26.2758C41.1104 28.1657 40.9415 28.3828 39.4618 28.4069C39.4618 28.4069 39.4457 28.4069 39.4296 28.4069H37.1457C36.1083 28.4069 35.2398 29.2192 35.1674 30.2566C35.1594 30.3048 35.1594 30.53 35.1674 30.5944C35.2639 31.6157 36.1164 32.3877 37.1377 32.3877H41.1104C43.2898 32.3877 45.0671 30.6185 45.0671 28.4391V18.6601C45.0671 16.4807 43.2978 14.7115 41.1104 14.7115" fill="#FDFDFD"/>
<path d="M61.931 22.0217C58.8751 21.2416 58.1191 20.8636 58.1191 19.7056V19.6573C58.1191 18.7969 58.8992 18.1133 60.3869 18.1133C60.6523 18.1133 60.9097 18.1374 61.1751 18.1776C61.2555 18.1857 61.3198 18.2018 61.3922 18.2178C62.2688 18.3867 63.089 18.7486 63.6761 19.0542C63.7404 19.0944 64.3355 19.4402 64.3355 19.4402L64.5768 19.5608C64.8824 19.6976 65.1156 19.6252 65.3167 19.3598L66.6838 17.3895V17.3734C66.7562 17.2769 66.7883 17.1724 66.7883 17.0437C66.7883 16.8668 66.732 16.7381 66.6114 16.6255C66.5873 16.6014 66.523 16.5612 66.4988 16.5371C66.3943 16.4647 66.2897 16.3923 66.1852 16.328C66.1852 16.328 66.1691 16.3199 66.1691 16.3119C66.0726 16.2476 65.9681 16.1832 65.8635 16.1189C65.8474 16.1028 65.8233 16.0948 65.8072 16.0867C65.7188 16.0385 65.6222 15.9822 65.5338 15.9339C65.4855 15.9098 65.4453 15.8857 65.4051 15.8615C65.3327 15.8213 65.2684 15.7892 65.188 15.757C63.7967 15.0574 62.2125 14.6794 60.4593 14.6794C56.8485 14.6794 54.2751 16.8025 54.2751 20.0031V20.0514C54.2751 23.5577 56.5751 24.5468 60.1296 25.4556C63.081 26.2115 63.6922 26.7182 63.6922 27.6993V27.7556C63.6922 28.785 62.7352 29.4203 61.1429 29.4203C60.403 29.4203 59.7034 29.3077 59.0439 29.0986C58.9957 29.0825 58.9394 29.0664 58.8911 29.0503C58.867 29.0423 58.8429 29.0343 58.8268 29.0262C58.5051 28.9136 58.2076 28.785 57.9422 28.6482C57.8618 28.608 57.7894 28.5678 57.717 28.5357C57.2667 28.2944 56.8887 28.0531 56.4625 27.7315C56.4062 27.6912 56.3097 27.6189 56.3016 27.6108C56.0363 27.4419 55.7226 27.4741 55.4974 27.7315L54.0258 29.5007C53.9856 29.5489 53.9695 29.5811 53.9454 29.6213C53.881 29.7178 53.8328 29.8304 53.8328 29.951C53.8328 30.1199 53.873 30.2245 53.9856 30.337C54.0338 30.3853 54.074 30.4175 54.1625 30.5059C56.189 32.0821 58.6418 32.8622 61.0866 32.8622C64.8985 32.8622 67.5684 30.8919 67.5684 27.3857V27.3374C67.5684 24.2573 65.5579 22.9706 61.9712 22.0378" fill="#FDFDFD"/>
<path d="M105.671 14.6713H103.017C102.688 14.6713 102.422 14.9367 102.422 15.2664V24.965C102.422 25.1178 102.43 25.2304 102.326 25.2626C102.229 25.2947 102.133 25.1902 102.068 25.0856L94.5009 15.1458C94.2998 14.8885 94.0586 14.6713 93.5439 14.6713H91.1474C90.8177 14.6713 90.5523 14.9367 90.5523 15.2664V31.7605C90.5523 32.0902 90.7774 32.3556 91.1474 32.3556H93.8012C94.1792 32.3556 94.3963 32.0902 94.3963 31.7605V21.708C94.3963 21.6196 94.3963 21.5633 94.4124 21.515C94.4526 21.4185 94.5813 21.4024 94.6698 21.4829C94.7019 21.515 94.718 21.5391 94.7582 21.5874C94.7582 21.5874 102.35 31.5514 102.599 31.8811C102.864 32.2349 103.162 32.3556 103.556 32.3556H105.671C106.041 32.3234 106.266 32.1143 106.266 31.7605V15.2664C106.266 14.9367 106.001 14.6713 105.671 14.6713Z" fill="#FDFDFD"/>
<path d="M125.591 14.6713H122.945C122.616 14.6713 122.342 14.9367 122.342 15.2664V24.965C122.342 25.1178 122.35 25.2304 122.238 25.2626C122.141 25.2947 122.053 25.1902 121.98 25.0856L114.421 15.1458C114.22 14.8885 113.978 14.6713 113.464 14.6713H111.067C110.738 14.6713 110.472 14.9367 110.472 15.2664V31.7605C110.472 32.0902 110.697 32.3556 111.067 32.3556H113.721C114.099 32.3556 114.316 32.0902 114.316 31.7605V21.708C114.316 21.6196 114.316 21.5633 114.332 21.515C114.373 21.4185 114.501 21.4024 114.59 21.4829C114.622 21.515 114.638 21.5391 114.67 21.5874C114.67 21.5874 122.262 31.5514 122.511 31.8811C122.768 32.2349 123.074 32.3556 123.468 32.3556H125.591C125.961 32.3234 126.186 32.1143 126.186 31.7605V15.2664C126.186 14.9367 125.921 14.6713 125.591 14.6713Z" fill="#FDFDFD"/>
<path d="M80.5964 25.1259C80.3068 25.2465 79.6796 25.4395 78.4733 25.4395C77.267 25.4395 76.6156 25.2626 76.3502 25.1419C76.2376 25.0937 76.1813 24.9731 76.2055 24.8524L78.3205 19.6895C78.3205 19.6895 78.3205 19.6895 78.3285 19.6654V19.6412C78.3607 19.593 78.4089 19.5608 78.4652 19.5608C78.5215 19.5608 78.5698 19.593 78.5939 19.6332L78.61 19.6654V19.6895L80.717 24.8122C80.7652 24.9328 80.7089 25.0696 80.5883 25.1259M80.524 15.2182C80.3953 14.9206 80.0897 14.6713 79.7037 14.6713H77.3233C76.9212 14.6713 76.6236 14.9206 76.495 15.2182L69.4261 31.8167C69.2974 32.1143 69.4583 32.3636 69.788 32.3636H72.5464C72.8761 32.3636 73.1817 32.2269 73.3666 31.8167L74.5971 28.7849C74.7257 28.4793 74.8544 28.4472 75.168 28.5437C75.168 28.5437 76.495 28.9538 78.4652 28.9538C80.6205 28.9538 81.7383 28.5758 81.7383 28.5758C82.0439 28.4954 82.2128 28.4793 82.3334 28.7849L83.5558 31.8167C83.7729 32.2912 84.0463 32.3636 84.3761 32.3636H87.231C87.5607 32.3636 87.7215 32.1143 87.5928 31.8167L80.524 15.2182Z" fill="#FDFDFD"/>
<path d="M140.935 25.1259C140.646 25.2465 140.018 25.4395 138.812 25.4395C137.606 25.4395 136.954 25.2626 136.673 25.1419H136.681C136.568 25.0937 136.512 24.9731 136.536 24.8524L138.659 19.6895C138.659 19.6895 138.659 19.6895 138.659 19.6654V19.6412C138.691 19.593 138.74 19.5608 138.804 19.5608C138.868 19.5608 138.908 19.593 138.933 19.6332V19.6654L138.949 19.6895L141.048 24.8122C141.104 24.9328 141.048 25.0696 140.919 25.1259M140.879 15.2182C140.75 14.9206 140.444 14.6713 140.058 14.6713H137.686C137.284 14.6713 136.986 14.9206 136.858 15.2182L129.789 31.8167C129.668 32.1143 129.821 32.3636 130.151 32.3636H132.909C133.223 32.3636 133.536 32.2269 133.721 31.8167L134.96 28.7849C135.089 28.4793 135.217 28.4472 135.523 28.5437C135.523 28.5437 136.858 28.9538 138.828 28.9538C140.983 28.9538 142.101 28.5758 142.101 28.5758C142.399 28.4954 142.568 28.4793 142.696 28.7849L143.927 31.8167C144.144 32.2912 144.417 32.3636 144.739 32.3636H147.594C147.923 32.3636 148.084 32.1143 147.956 31.8167L140.887 15.2182H140.879Z" fill="#FDFDFD"/>
</svg>
